PathFileType	4	(X/Y/Z)	C:\Users\86182\Documents\cortex\Trimmed_M1_L1.trc
DataRate	CameraRate	NumFrames	NumMarkers	Units	OrigDataRate	OrigDataStartFrame	OrigNumFrames
100.00	100.00	      57	2	mm	100.00	201	      1001
Frame#	Time	gripper			box			
		X1	Y1	Z1	X2	Y2	Z2	

201	2.000	198.11771	193.02823	215.08763	201.46759	192.12955	79.94785	
202	2.010	197.98907	192.93936	215.62909	201.22621	192.09010	80.47787	
203	2.020	198.05179	193.01753	216.11433	201.35641	192.02609	80.87547	
204	2.030	198.08740	193.01779	216.41612	201.32742	192.09171	81.34144	
205	2.040	197.96158	192.92339	216.90504	201.29694	192.08177	81.80766	
206	2.050	198.01703	192.89462	217.32030	201.21028	192.00940	82.27206	
207	2.060	198.19070	193.02876	217.70880	201.23624	192.14310	82.55294	
208	2.070	198.06451	193.03459	218.13455	201.31802	192.18808	83.04356	
209	2.080	198.03406	192.92679	218.45569	201.07721	192.05365	83.40238	
210	2.090	198.09238	192.97513	219.01247	201.08244	191.99547	83.80743	
211	2.100	198.01665	193.10648	219.36827	200.56473	192.35092	84.51612	
212	2.110	197.87163	192.93620	219.80121	200.87683	191.98869	84.74459	
213	2.120	197.94867	192.93161	220.08163	200.88495	192.01897	85.17870	
214	2.130	198.02130	192.99670	220.57127	200.66144	192.00676	85.60730	
215	2.140	197.80199	193.00523	221.10722	201.00954	191.85435	85.86598	
216	2.150	197.88544	193.10664	221.49731	200.82658	191.83800	86.19756	
217	2.160	198.03152	192.96593	221.88434	201.03368	191.89893	86.82333	
218	2.170	198.02342	192.98395	222.30748	200.85953	191.94791	87.34225	
219	2.180	197.92741	192.97095	222.74345	200.78889	191.96382	87.70731	
220	2.190	197.89658	193.10512	223.19260	200.75606	191.94824	88.12532	
221	2.200	197.72856	193.17400	223.75397	201.03845	191.91393	88.66095	
222	2.210	197.84627	193.10497	224.12105	200.85571	192.15147	89.04213	
223	2.220	198.02725	193.10594	224.50070	200.67203	192.14221	89.64771	
224	2.230	197.98157	193.13785	225.06544	200.79021	192.10376	90.00186	
225	2.240	197.72359	193.13733	225.67363	200.84212	192.09987	90.47559	
226	2.250	197.77284	193.14136	225.91901	200.78812	192.17505	90.81045	
227	2.260	197.98349	193.18462	226.10287	200.87386	192.17690	91.05678	
228	2.270	198.01778	193.11337	226.68231	200.69777	192.12141	91.59932	
229	2.280	197.90503	193.12715	227.07295	200.90529	192.16223	92.26321	
230	2.290	197.76060	193.14775	227.51553	200.84268	192.04642	92.44311	
231	2.300	197.94914	193.27939	227.95433	200.70331	192.12666	92.75128	
232	2.310	197.94965	193.18214	228.32962	200.66240	192.25247	93.07985	
233	2.320	197.75122	193.08430	228.76782	200.53001	192.00061	93.86319	
234	2.330	197.98476	193.16536	229.04906	200.79041	192.07056	94.15131	
235	2.340	197.98996	193.23674	229.68071	200.87428	192.15295	94.52686	
236	2.350	197.99124	193.28207	230.18919	200.83752	192.23601	95.00016	
237	2.360	197.84940	193.21097	230.46597	200.68164	192.12032	95.54446	
238	2.370	197.76358	193.28506	230.93015	200.48343	192.21785	95.91407	
239	2.380	197.93698	193.17242	231.39478	200.66519	192.22580	96.20125	
240	2.390	197.98463	193.29514	231.92903	200.89723	192.18907	96.86226	
241	2.400	197.82422	193.32715	232.25102	200.82507	192.25229	97.36590	
242	2.410	197.73477	193.30344	232.71906	200.55386	192.21263	97.73858	
243	2.420	197.66714	193.30846	233.18571	200.57820	192.34117	97.98367	
244	2.430	197.68620	193.24535	233.40129	200.50014	192.25960	98.28573	
245	2.440	197.82726	193.28613	233.93407	200.52408	192.13562	98.91150	
246	2.450	197.74326	193.26918	234.50467	200.74992	192.27411	99.23452	
247	2.460	197.70959	193.31801	234.87474	200.51517	192.32677	99.73100	
248	2.470	197.59229	193.29456	235.07700	200.52966	192.13324	100.04127	
249	2.480	197.77977	193.36353	235.39099	200.47879	192.17682	100.58495	
250	2.490	197.79437	193.31380	236.08067	200.45343	192.22751	100.88209	
251	2.500	197.86523	193.31859	236.52597	200.70107	192.29193	101.08485	
252	2.510	197.71803	193.38184	236.85420	200.34753	192.23947	101.87144	
253	2.520	197.89647	193.36469	237.29083	200.68402	192.23697	102.27655	
254	2.530	197.72224	193.27345	237.70035	200.71761	192.38309	102.75440	
255	2.540	197.72356	193.36774	238.22290	200.57312	192.35968	102.96661	
256	2.550	198.02986	193.48286	238.79486	200.75748	192.32384	103.49308	
257	2.560	197.89485	193.35416	239.23946	200.58034	192.36272	104.18186	
